<svg width="158" height="158" viewBox="0 0 158 158" fill="none" xmlns="http://www.w3.org/2000/svg">
<path fill-rule="evenodd" clip-rule="evenodd" d="M150.1 138.25C149.011 138.25 148.125 137.364 148.125 136.275C148.125 135.186 149.011 134.3 150.1 134.3C151.189 134.3 152.075 135.186 152.075 136.275C152.075 137.364 151.189 138.25 150.1 138.25Z" fill="#CACAFB"/>
<path fill-rule="evenodd" clip-rule="evenodd" d="M77.0248 7.9002C75.9358 7.9002 75.0498 7.01421 75.0498 5.9252C75.0498 4.83609 75.9358 3.9502 77.0248 3.9502C78.1138 3.9502 78.9998 4.83609 78.9998 5.9252C78.9998 7.01421 78.1138 7.9002 77.0248 7.9002Z" fill="#CACAFB"/>
<path fill-rule="evenodd" clip-rule="evenodd" d="M7.8998 122.45C6.81079 122.45 5.9248 121.564 5.9248 120.475C5.9248 119.386 6.81079 118.5 7.8998 118.5C8.98882 118.5 9.8748 119.386 9.8748 120.475C9.8748 121.564 8.98882 122.45 7.8998 122.45Z" fill="#CACAFB"/>
<path fill-rule="evenodd" clip-rule="evenodd" d="M107.147 85.3098L114.817 66.8212C115.653 64.8062 117.964 63.8504 119.979 64.6863C120.941 65.0856 121.707 65.8489 122.109 66.81L129.847 85.3019C130.291 86.3628 130.251 87.5645 129.737 88.5932L126.738 94.5913C126.64 94.7874 126.526 94.9729 126.4 95.1468V102.379L130.249 113.925C130.318 114.132 130.352 114.348 130.35 114.564L130.337 114.781L127.544 138.481C127.436 139.399 126.709 140.108 125.811 140.212L125.583 140.225H111.418C110.493 140.225 109.704 139.586 109.496 138.706L109.456 138.481L108.54 130.704C108.412 129.621 109.187 128.639 110.27 128.512C111.276 128.393 112.195 129.053 112.423 130.015L112.463 130.242L113.174 136.275H123.825L126.361 114.753L123.001 104.675H113.997L110.499 115.174C110.179 116.135 109.191 116.686 108.223 116.484L108.001 116.423C107.04 116.103 106.489 115.116 106.691 114.148L106.752 113.925L110.6 102.379V95.1468C110.474 94.9729 110.361 94.7874 110.263 94.5913L107.262 88.5899C106.75 87.565 106.708 86.3681 107.147 85.3098ZM114.55 96.7748V100.725H122.45V96.7748H114.55ZM116.525 73.0117L110.795 86.8234L113.796 92.8248H123.205L126.204 86.8267L120.475 73.1374V82.9498C120.475 84.0406 119.591 84.9248 118.5 84.9248C117.487 84.9248 116.653 84.1624 116.538 83.1801L116.525 82.9498V73.0117Z" fill="#E1000F"/>
<path d="M92.8252 104.675C96.5493 104.675 98.7502 106.876 98.7502 110.6C98.7502 110.761 98.7304 110.922 98.6912 111.079C97.6932 115.071 93.2554 117.666 85.3365 119.096L84.0572 119.313C83.6211 119.381 83.1754 119.447 82.72 119.51L81.3249 119.688C81.0876 119.716 80.8478 119.743 80.6056 119.77L79.1235 119.92L77.5835 120.052L75.9853 120.165L74.3291 120.261C74.0482 120.275 73.7649 120.289 73.4791 120.302L71.7357 120.37L69.9341 120.422L68.0742 120.456L65.1752 120.475C64.0844 120.475 63.2002 119.591 63.2002 118.5C63.2002 117.409 64.0844 116.525 65.1752 116.525L67.0514 116.516C67.3591 116.513 67.6642 116.51 67.9668 116.506L69.7521 116.472L71.4766 116.421L73.1404 116.355L74.7434 116.272L76.2855 116.174L77.7668 116.06L79.1871 115.93C79.4187 115.907 79.6478 115.884 79.8743 115.86L81.2032 115.708C81.8523 115.629 82.4786 115.543 83.0819 115.453L84.258 115.265L85.373 115.063L86.4268 114.847C91.2014 113.808 93.9755 112.325 94.7287 110.514L94.7943 110.333L94.7811 110.1C94.6896 109.037 94.2508 108.673 93.086 108.629L92.8252 108.625C90.7736 108.625 88.613 109.705 86.3217 111.996C85.1316 113.186 83.1335 112.432 82.962 110.824L82.9502 110.6C82.9502 109.057 82.5178 108.625 80.9752 108.625C78.9236 108.625 76.763 109.705 74.4717 111.996C73.7004 112.768 72.4499 112.768 71.6787 111.996C70.9074 111.225 70.9074 109.975 71.6787 109.203C74.6541 106.228 77.7602 104.675 80.9752 104.675C83.2363 104.675 84.9358 105.486 85.9222 106.957L85.9996 107.082L86.3859 106.814C88.3159 105.51 90.2952 104.791 92.3185 104.688L92.8252 104.675Z" fill="#E1000F"/>
<path d="M110.587 23.4698C110.473 22.4875 109.638 21.7251 108.625 21.7251H33.5751L33.3448 21.7384C32.3625 21.8525 31.6001 22.6872 31.6001 23.7001V130.35L31.6134 130.58C31.7275 131.563 32.5622 132.325 33.5751 132.325H96.7751L97.0054 132.312C97.9877 132.198 98.7501 131.363 98.7501 130.35L98.7368 130.12C98.6227 129.138 97.7879 128.375 96.7751 128.375H35.5501V25.6751H106.65V63.2001L106.663 63.4304C106.777 64.4127 107.612 65.1751 108.625 65.1751C109.716 65.1751 110.6 64.2909 110.6 63.2001V23.7001L110.587 23.4698Z" fill="#000091"/>
<path d="M79.0001 35.5501C79.0001 34.4593 78.1159 33.5751 77.0251 33.5751H45.4251L45.1948 33.5884C44.2125 33.7025 43.4501 34.5372 43.4501 35.5501C43.4501 36.6409 44.3343 37.5251 45.4251 37.5251H77.0251L77.2554 37.5118C78.2377 37.3977 79.0001 36.563 79.0001 35.5501Z" fill="#000091"/>
<path d="M96.7751 45.4251C97.8659 45.4251 98.7501 46.3093 98.7501 47.4001C98.7501 48.413 97.9877 49.2477 97.0054 49.3618L96.7751 49.3751H45.4251C44.3343 49.3751 43.4501 48.4909 43.4501 47.4001C43.4501 46.3872 44.2125 45.5525 45.1948 45.4384L45.4251 45.4251H96.7751Z" fill="#000091"/>
<path d="M86.9001 59.2501C86.9001 58.1593 86.0159 57.2751 84.9251 57.2751H45.4251L45.1948 57.2884C44.2125 57.4025 43.4501 58.2372 43.4501 59.2501C43.4501 60.3409 44.3343 61.2251 45.4251 61.2251H84.9251L85.1554 61.2118C86.1377 61.0977 86.9001 60.263 86.9001 59.2501Z" fill="#000091"/>
<path d="M96.7751 69.1251C97.8659 69.1251 98.7501 70.0093 98.7501 71.1001C98.7501 72.113 97.9877 72.9477 97.0054 73.0618L96.7751 73.0751H45.4251C44.3343 73.0751 43.4501 72.1909 43.4501 71.1001C43.4501 70.0872 44.2125 69.2525 45.1948 69.1384L45.4251 69.1251H96.7751Z" fill="#000091"/>
<path d="M118.487 39.2698C118.373 38.2875 117.538 37.5251 116.525 37.5251C115.434 37.5251 114.55 38.4093 114.55 39.5001V55.3001L114.563 55.5304C114.677 56.5127 115.512 57.2751 116.525 57.2751C117.616 57.2751 118.5 56.3909 118.5 55.3001V39.5001L118.487 39.2698Z" fill="#000091"/>
<path d="M100.725 136.275C101.816 136.275 102.7 137.159 102.7 138.25C102.7 139.263 101.938 140.098 100.955 140.212L100.725 140.225H49.3751C48.2843 140.225 47.4001 139.341 47.4001 138.25C47.4001 137.237 48.1625 136.402 49.1448 136.288L49.3751 136.275H100.725Z" fill="#000091"/>
<path d="M86.9001 82.9501C86.9001 81.8593 86.0159 80.9751 84.9251 80.9751H45.4251L45.1948 80.9884C44.2125 81.1025 43.4501 81.9372 43.4501 82.9501C43.4501 84.0409 44.3343 84.9251 45.4251 84.9251H84.9251L85.1554 84.9118C86.1377 84.7977 86.9001 83.963 86.9001 82.9501Z" fill="#000091"/>
</svg>
