<svg width="136" height="139" viewBox="0 0 136 139" fill="none" xmlns="http://www.w3.org/2000/svg">
<path d="M36.1846 56.521C36.1846 60.3628 33.0703 63.4771 29.2285 63.4771C25.3868 63.4771 22.2725 60.3628 22.2725 56.521C22.2725 52.6793 25.3868 49.5649 29.2285 49.5649C33.0703 49.5649 36.1846 52.6793 36.1846 56.521ZM26.6628 56.521C26.6628 57.938 27.8115 59.0868 29.2285 59.0868C30.6456 59.0868 31.7943 57.938 31.7943 56.521C31.7943 55.104 30.6456 53.9553 29.2285 53.9553C27.8115 53.9553 26.6628 55.104 26.6628 56.521Z" fill="#E1000F"/>
<line x1="27.9097" y1="62.1582" x2="27.9097" y2="71.7517" stroke="#E1000F" stroke-width="2" stroke-linecap="round"/>
<path d="M130.787 67.6504C130.787 71.4922 127.673 74.6065 123.831 74.6065C119.989 74.6065 116.875 71.4922 116.875 67.6504C116.875 63.8087 119.989 60.6943 123.831 60.6943C127.673 60.6943 130.787 63.8087 130.787 67.6504ZM121.265 67.6504C121.265 69.0674 122.414 70.2162 123.831 70.2162C125.248 70.2162 126.397 69.0674 126.397 67.6504C126.397 66.2334 125.248 65.0847 123.831 65.0847C122.414 65.0847 121.265 66.2334 121.265 67.6504Z" fill="#E1000F"/>
<line x1="122.512" y1="73.2876" x2="122.512" y2="82.8811" stroke="#E1000F" stroke-width="2" stroke-linecap="round"/>
<path fill-rule="evenodd" clip-rule="evenodd" d="M33.4807 69.2618C32.8417 61.7777 28.5514 57.9121 20.881 57.9121C13.2106 57.9121 8.92031 61.7777 8.28134 69.2618C8.23299 69.8281 8.73985 70.2896 9.31531 70.2032L10.9788 69.9534V70.3373C10.3345 70.4585 9.85951 70.6262 9.52656 70.8685C8.68226 71.483 8.27815 72.4656 8.27815 73.728C8.27815 75.9706 9.58138 77.2427 11.8789 77.2427C11.9769 77.2427 12.0713 77.2274 12.1596 77.1991C13.1173 79.0117 14.6018 80.4927 16.4057 81.4268C16.3889 81.4939 16.38 81.5639 16.38 81.636C16.38 82.7771 15.8229 83.7912 14.9597 84.4333C14.9457 84.4429 14.9321 84.4529 14.9189 84.4632C14.3207 84.8952 13.5805 85.1507 12.7792 85.1507H10.9788L10.7763 85.1543C7.88716 85.2582 5.57764 87.5772 5.57764 90.4226C5.57764 90.9079 5.98067 91.3013 6.47784 91.3013C6.975 91.3013 7.37803 90.9079 7.37803 90.4226C7.37803 88.4816 8.99017 86.908 10.9788 86.908H12.7792L12.9817 86.9044C13.7346 86.8773 14.4482 86.6998 15.0918 86.4017C16.0569 87.8843 17.8369 88.3369 20.1992 87.7604C20.6815 87.6427 20.9747 87.1657 20.8541 86.6949C20.7336 86.2241 20.2448 85.9379 19.7625 86.0556C18.0793 86.4663 17.0963 86.244 16.5718 85.3897C17.4528 84.5416 18.0366 83.4003 18.1572 82.1279C19.0222 82.3798 19.9359 82.5147 20.881 82.5147C21.8261 82.5147 22.7398 82.3798 23.6048 82.1279C23.8529 84.7443 26.0596 86.8065 28.7803 86.9044L28.9828 86.908H30.7832C32.7719 86.908 34.384 88.4816 34.384 90.4226C34.384 90.9079 34.787 91.3013 35.2842 91.3013C35.7814 91.3013 36.1844 90.9079 36.1844 90.4226C36.1844 87.5772 33.8749 85.2582 30.9857 85.1543L30.7832 85.1507H28.9828C26.9941 85.1507 25.382 83.5771 25.382 81.636C25.382 81.5639 25.3731 81.4939 25.3563 81.4268C27.1602 80.4927 28.6448 79.0117 29.6024 77.1992C29.6907 77.2274 29.785 77.2427 29.883 77.2427C32.1806 77.2427 33.4838 75.9706 33.4838 73.728C33.4838 72.4656 33.0797 71.483 32.2354 70.8685C31.7803 70.5373 31.0598 70.3454 30.004 70.2213C29.9655 70.2162 29.9262 70.2135 29.8864 70.2134L29.8849 70.2133C29.798 70.213 29.7134 70.225 29.633 70.2477C29.5033 70.2843 29.3856 70.3485 29.2872 70.4334C29.113 70.5836 28.9989 70.7987 28.9844 71.0398C28.983 71.0619 28.9825 71.0838 28.9828 71.1056V72.4101L28.9795 72.6523C28.8549 77.1591 25.2671 80.7574 20.881 80.7574C16.4166 80.7574 12.7792 77.0295 12.7792 72.4101V69.683L21.0179 68.4459L21.1241 68.4234C21.3669 68.357 21.5719 68.1934 21.6862 67.9704L22.5864 66.213L22.6279 66.1187C22.7816 65.7052 22.5967 65.2357 22.1838 65.0342L22.0872 64.9936C21.6635 64.8436 21.1825 65.0241 20.9761 65.4271L20.2833 66.7778L10.2047 68.2909L10.2211 68.1777C11.1033 62.4381 14.5826 59.6694 20.881 59.6694L21.2043 59.6719C27.1917 59.7641 30.5547 62.4407 31.493 67.8835L31.5394 68.174L25.6003 66.725L25.497 66.7059C25.0501 66.6491 24.6207 66.9271 24.5087 67.3643C24.3881 67.8351 24.6814 68.3121 25.1637 68.4298L32.3653 70.1872L32.4705 70.2066C33.0284 70.2773 33.5289 69.8265 33.4807 69.2618ZM10.9788 72.1378C10.7879 72.1867 10.6605 72.2354 10.6027 72.2774C10.2653 72.5229 10.0785 72.977 10.0785 73.728C10.0785 74.8456 10.4623 75.3559 11.4391 75.4633C11.1645 74.5785 11.0061 73.6413 10.9821 72.6704L10.9788 72.4101V72.1378ZM31.6834 73.728C31.6834 74.8455 31.2997 75.3558 30.3229 75.4633C30.622 74.4996 30.7832 73.4738 30.7832 72.4101V72.1378C30.9741 72.1867 31.1015 72.2354 31.1592 72.2774C31.4967 72.5229 31.6834 72.977 31.6834 73.728Z" fill="#000091"/>
<path fill-rule="evenodd" clip-rule="evenodd" d="M122.518 52.5674C121.879 45.0833 117.589 41.2178 109.919 41.2178C102.248 41.2178 97.9579 45.0833 97.3189 52.5674C97.2706 53.1338 97.7774 53.5953 98.3529 53.5088L100.016 53.259V53.6429C99.3721 53.7641 98.8971 53.9319 98.5642 54.1742C97.7199 54.7886 97.3157 55.7713 97.3157 57.0337C97.3157 59.2763 98.619 60.5484 100.917 60.5484C101.015 60.5484 101.109 60.5331 101.197 60.5048C102.155 62.3174 103.639 63.7984 105.443 64.7325C105.427 64.7995 105.418 64.8696 105.418 64.9417C105.418 66.0828 104.86 67.0969 103.997 67.7389C103.983 67.7485 103.97 67.7585 103.956 67.7688C103.358 68.2009 102.618 68.4563 101.817 68.4563H100.016L99.8139 68.46C96.9248 68.5639 94.6152 70.8829 94.6152 73.7283C94.6152 74.2136 95.0183 74.607 95.5154 74.607C96.0126 74.607 96.4156 74.2136 96.4156 73.7283C96.4156 71.7872 98.0278 70.2137 100.016 70.2137H101.817L102.019 70.21C102.772 70.1829 103.486 70.0054 104.129 69.7074C105.095 71.19 106.875 71.6425 109.237 71.0661C109.719 70.9484 110.012 70.4713 109.892 70.0006C109.771 69.5298 109.282 69.2435 108.8 69.3612C107.117 69.772 106.134 69.5496 105.609 68.6953C106.49 67.8473 107.074 66.706 107.195 65.4336C108.06 65.6855 108.974 65.8203 109.919 65.8203C110.864 65.8203 111.777 65.6855 112.642 65.4336C112.89 68.05 115.097 70.1121 117.818 70.21L118.02 70.2137H119.821C121.809 70.2137 123.422 71.7872 123.422 73.7283C123.422 74.2136 123.825 74.607 124.322 74.607C124.819 74.607 125.222 74.2136 125.222 73.7283C125.222 70.8829 122.912 68.5639 120.023 68.46L119.821 68.4563H118.02C116.032 68.4563 114.42 66.8828 114.42 64.9417C114.42 64.8696 114.411 64.7995 114.394 64.7325C116.198 63.7984 117.682 62.3174 118.64 60.5048C118.728 60.5331 118.823 60.5484 118.921 60.5484C121.218 60.5484 122.521 59.2763 122.521 57.0337C122.521 55.7713 122.117 54.7886 121.273 54.1742C120.818 53.843 120.097 53.6511 119.042 53.5269C119.003 53.5219 118.964 53.5192 118.924 53.5191L118.923 53.519C118.836 53.5187 118.751 53.5307 118.671 53.5534C118.541 53.5899 118.423 53.6541 118.325 53.7391C118.151 53.8893 118.036 54.1043 118.022 54.3455C118.021 54.3675 118.02 54.3895 118.02 54.4112V55.7157L118.017 55.958C117.893 60.4648 114.305 64.063 109.919 64.063C105.454 64.063 101.817 60.3351 101.817 55.7157V52.9887L110.056 51.7515L110.162 51.7291C110.405 51.6627 110.61 51.4991 110.724 51.276L111.624 49.5187L111.666 49.4244C111.819 49.0108 111.634 48.5414 111.221 48.3398L111.125 48.2993C110.701 48.1493 110.22 48.3298 110.014 48.7328L109.321 50.0835L99.2423 51.5965L99.2587 51.4834C100.141 45.7438 103.62 42.9751 109.919 42.9751L110.242 42.9776C116.229 43.0698 119.592 45.7463 120.531 51.1892L120.577 51.4797L114.638 50.0306L114.535 50.0115C114.088 49.9548 113.658 50.2328 113.546 50.67C113.426 51.1407 113.719 51.6178 114.201 51.7355L121.403 53.4928L121.508 53.5123C122.066 53.5829 122.567 53.1321 122.518 52.5674ZM100.016 55.4434C99.8255 55.4924 99.6981 55.541 99.6403 55.583C99.3029 55.8286 99.1161 56.2827 99.1161 57.0337C99.1161 58.1512 99.4999 58.6615 100.477 58.769C100.202 57.8842 100.044 56.9469 100.02 55.9761L100.016 55.7157V55.4434ZM120.721 57.0337C120.721 58.1512 120.337 58.6615 119.361 58.769C119.66 57.8053 119.821 56.7794 119.821 55.7157V55.4434C120.012 55.4924 120.139 55.541 120.197 55.583C120.534 55.8286 120.721 56.2827 120.721 57.0337Z" fill="#000091"/>
<path fill-rule="evenodd" clip-rule="evenodd" d="M98.784 89.795C97.7966 77.9452 91.1661 71.8247 79.3118 71.8247C67.4576 71.8247 60.8271 77.9452 59.8396 89.795C59.7649 90.6917 60.5482 91.4224 61.4375 91.2856L64.0084 90.89V91.4979C63.0126 91.6898 62.2786 91.9554 61.764 92.3391C60.4592 93.3119 59.8346 94.8678 59.8346 96.8666C59.8346 100.417 61.8487 102.431 65.3995 102.431C65.551 102.431 65.6968 102.407 65.8333 102.363C67.3133 105.232 69.6076 107.577 72.3954 109.056C72.3695 109.162 72.3557 109.273 72.3557 109.388C72.3557 111.194 71.4947 112.8 70.1606 113.817C70.1391 113.832 70.1181 113.848 70.0976 113.864C69.1731 114.548 68.0292 114.952 66.7909 114.952H64.0084L63.6955 114.958C59.2304 115.123 55.6611 118.794 55.6611 123.3C55.6611 124.068 56.284 124.691 57.0523 124.691C57.8207 124.691 58.4436 124.068 58.4436 123.3C58.4436 120.226 60.935 117.735 64.0084 117.735H66.7909L67.1038 117.729C68.2674 117.686 69.3702 117.405 70.3648 116.933C71.8564 119.281 74.6073 119.997 78.258 119.085C79.0034 118.898 79.4566 118.143 79.2703 117.397C79.0839 116.652 78.3286 116.199 77.5832 116.385C74.9819 117.035 73.4627 116.683 72.6522 115.331C74.0136 113.988 74.9159 112.181 75.1023 110.166C76.4391 110.565 77.8512 110.779 79.3118 110.779C80.7724 110.779 82.1845 110.565 83.5213 110.166C83.9046 114.309 87.315 117.574 91.5198 117.729L91.8328 117.735H94.6152C97.6886 117.735 100.18 120.226 100.18 123.3C100.18 124.068 100.803 124.691 101.571 124.691C102.34 124.691 102.962 124.068 102.962 123.3C102.962 118.794 99.3932 115.123 94.9281 114.958L94.6152 114.952H91.8328C88.7594 114.952 86.2679 112.461 86.2679 109.388C86.2679 109.273 86.2542 109.162 86.2282 109.056C89.016 107.577 91.3103 105.232 92.7903 102.363C92.9268 102.407 93.0726 102.431 93.224 102.431C96.7748 102.431 98.7888 100.417 98.7888 96.8666C98.7888 94.8678 98.1643 93.3119 96.8595 92.3391C96.1561 91.8146 95.0426 91.5108 93.411 91.3142C93.3515 91.3062 93.2908 91.302 93.2292 91.3018L93.2269 91.3016C93.0926 91.3012 92.9618 91.3201 92.8375 91.3561C92.6371 91.4139 92.4553 91.5156 92.3031 91.6501C92.034 91.8879 91.8576 92.2284 91.8352 92.6102C91.8331 92.6451 91.8323 92.6799 91.8328 92.7143V94.7798L91.8276 95.1634C91.6351 102.299 86.0903 107.996 79.3118 107.996C72.4123 107.996 66.7909 102.094 66.7909 94.7798V90.462L79.5234 88.5031L79.6875 88.4676C80.0627 88.3624 80.3796 88.1034 80.5562 87.7503L81.9474 84.9678L82.0116 84.8185C82.2491 84.1637 81.9633 83.4204 81.3252 83.1013L81.1759 83.0371C80.5211 82.7996 79.7778 83.0853 79.4587 83.7235L78.388 85.8621L62.812 88.2578L62.8374 88.0786C64.2008 78.9909 69.5779 74.6071 79.3118 74.6071L79.8114 74.6111C89.0647 74.7571 94.262 78.9949 95.7122 87.6128L95.7838 88.0727L86.6053 85.7784L86.4456 85.7481C85.7549 85.6583 85.0913 86.0985 84.9182 86.7907C84.7319 87.5361 85.1851 88.2914 85.9305 88.4778L97.0602 91.2602L97.2228 91.291C98.0851 91.4029 98.8586 90.6891 98.784 89.795ZM64.0084 94.3487C63.7133 94.4262 63.5164 94.5032 63.4272 94.5697C62.9057 94.9585 62.6171 95.6775 62.6171 96.8666C62.6171 98.636 63.2101 99.444 64.7198 99.6142C64.2954 98.2132 64.0506 96.7292 64.0134 95.1921L64.0084 94.7798V94.3487ZM96.0064 96.8666C96.0064 98.636 95.4134 99.4439 93.9038 99.6142C94.366 98.0883 94.6152 96.464 94.6152 94.7798V94.3487C94.9102 94.4262 95.1071 94.5032 95.1963 94.5697C95.7178 94.9585 96.0064 95.6775 96.0064 96.8666Z" fill="#000091"/>
<path d="M32.8913 37.7213C31.9736 37.0184 31.7958 35.7013 32.5397 34.8166C36.2214 30.4383 40.6931 26.7817 45.7282 24.0409C51.3768 20.9661 57.6084 19.1124 64.0191 18.5998C70.4299 18.0873 76.8768 18.9274 82.9422 21.0656C88.3488 22.9716 93.3447 25.8713 97.6752 29.609C98.5502 30.3643 98.584 31.6929 97.7896 32.5326V32.5326C96.9953 33.3724 95.6739 33.4047 94.7954 32.6535C90.8933 29.3166 86.404 26.7245 81.5504 25.0134C76.0381 23.0701 70.179 22.3066 64.3527 22.7724C58.5265 23.2383 52.8631 24.923 47.7295 27.7174C43.2095 30.1779 39.189 33.4503 35.8667 37.3648C35.1187 38.2461 33.809 38.4241 32.8913 37.7213V37.7213Z" fill="#EE1100"/>
<path d="M116.716 80.5225C117.864 80.6565 118.691 81.6969 118.505 82.8377C117.648 88.0883 115.884 93.1555 113.287 97.8107C110.69 102.466 107.305 106.629 103.287 110.116C102.414 110.874 101.095 110.716 100.378 109.81V109.81C99.6605 108.903 99.8179 107.591 100.687 106.829C104.276 103.686 107.303 99.9466 109.632 95.7714C111.961 91.5963 113.552 87.0566 114.342 82.3519C114.534 81.2119 115.568 80.3885 116.716 80.5225V80.5225Z" fill="#EE1100"/>
<path d="M48.6481 114.953C48.2712 116.046 47.0777 116.631 46.0032 116.205C38.5376 113.243 31.9786 108.374 26.9832 102.085C26.2642 101.18 26.4787 99.8682 27.4156 99.1913V99.1913C28.3526 98.5143 29.6569 98.7289 30.38 99.6307C34.865 105.225 40.717 109.569 47.3695 112.243C48.442 112.674 49.0249 113.861 48.6481 114.953V114.953Z" fill="#EE1100"/>
<path fill-rule="evenodd" clip-rule="evenodd" d="M133.778 105.151C132.56 105.151 131.569 104.16 131.569 102.942C131.569 101.724 132.56 100.733 133.778 100.733C134.996 100.733 135.987 101.724 135.987 102.942C135.987 104.16 134.996 105.151 133.778 105.151Z" fill="#CACAFB"/>
<path fill-rule="evenodd" clip-rule="evenodd" d="M125.449 120.799C124.231 120.799 123.24 119.808 123.24 118.59C123.24 117.372 124.231 116.381 125.449 116.381C126.667 116.381 127.658 117.372 127.658 118.59C127.658 119.808 126.667 120.799 125.449 120.799Z" fill="#CACAFB"/>
<path fill-rule="evenodd" clip-rule="evenodd" d="M129.36 36.6918C128.142 36.6918 127.151 35.7008 127.151 34.4828C127.151 33.2647 128.142 32.2739 129.36 32.2739C130.578 32.2739 131.569 33.2647 131.569 34.4828C131.569 35.7008 130.578 36.6918 129.36 36.6918Z" fill="#CACAFB"/>
<path fill-rule="evenodd" clip-rule="evenodd" d="M10.079 138.875C8.86104 138.875 7.87012 137.884 7.87012 136.666C7.87012 135.448 8.86104 134.458 10.079 134.458C11.297 134.458 12.2879 135.448 12.2879 136.666C12.2879 137.884 11.297 138.875 10.079 138.875Z" fill="#CACAFB"/>
<path fill-rule="evenodd" clip-rule="evenodd" d="M18.8471 24.0116C17.6291 24.0116 16.6382 23.0207 16.6382 21.8027C16.6382 20.5846 17.6291 19.5938 18.8471 19.5938C20.0651 19.5938 21.056 20.5846 21.056 21.8027C21.056 23.0207 20.0651 24.0116 18.8471 24.0116Z" fill="#CACAFB"/>
</svg>
